<svg width="14" height="14" viewBox="0 0 14 14" fill="none" xmlns="http://www.w3.org/2000/svg">
<path d="M10.0972 2.07342L11.2615 0.90838C11.5042 0.665657 11.8334 0.529297 12.1767 0.529297C12.52 0.529297 12.8492 0.665657 13.0919 0.90838C13.3346 1.1511 13.471 1.48031 13.471 1.82357C13.471 2.16683 13.3346 2.49603 13.0919 2.73876L5.76278 10.0679C5.3979 10.4325 4.94792 10.7006 4.4535 10.8478L2.60035 11.3999L3.1525 9.54676C3.2997 9.05233 3.56774 8.60236 3.93241 8.23748L10.0972 2.07342ZM10.0972 2.07342L11.9179 3.89413M10.8826 8.63916V11.9176C10.8826 12.3294 10.719 12.7244 10.4277 13.0156C10.1365 13.3069 9.74153 13.4705 9.32967 13.4705H2.08271C1.67085 13.4705 1.27585 13.3069 0.984625 13.0156C0.693396 12.7244 0.529785 12.3294 0.529785 11.9176V4.67059C0.529785 4.25873 0.693396 3.86374 0.984625 3.57251C1.27585 3.28128 1.67085 3.11767 2.08271 3.11767H5.36109" stroke="white" stroke-width="1.03528" stroke-linecap="round" stroke-linejoin="round"/>
</svg>
