<svg width="16" height="20" viewBox="0 0 16 20" fill="none" xmlns="http://www.w3.org/2000/svg">
<path d="M5.65126 7.01057L15.001 4.3392M15.001 10.1743V1L5.65126 3.67136V12.8457M15.001 10.1743V13.5136C15.0009 13.9489 14.8591 14.3723 14.5969 14.7199C14.3347 15.0674 13.9664 15.32 13.5478 15.4396L12.3724 15.7753C12.1686 15.8369 11.9546 15.8573 11.7428 15.8354C11.531 15.8135 11.3257 15.7497 11.1389 15.6477C10.952 15.5457 10.7872 15.4076 10.6543 15.2413C10.5213 15.075 10.4227 14.884 10.3642 14.6793C10.3058 14.4746 10.2886 14.2603 10.3137 14.0488C10.3389 13.8374 10.4058 13.6331 10.5107 13.4478C10.6155 13.2625 10.7562 13.0999 10.9245 12.9695C11.0927 12.8391 11.2853 12.7434 11.4909 12.6881L13.5478 12.1004C13.9664 11.9808 14.3347 11.7282 14.5969 11.3807C14.8591 11.0331 15.0009 10.6097 15.001 10.1743V10.1743ZM5.65126 12.8457V16.1849C5.65117 16.6202 5.50929 17.0437 5.24708 17.3912C4.98488 17.7387 4.61663 17.9914 4.19803 18.111L3.02263 18.4467C2.61557 18.5562 2.18175 18.5012 1.81487 18.2936C1.44798 18.086 1.17745 17.7425 1.06171 17.3371C0.945963 16.9318 0.994282 16.4972 1.19623 16.1272C1.39818 15.7572 1.73756 15.4814 2.14109 15.3595L4.19803 14.7718C4.61663 14.6522 4.98488 14.3995 5.24708 14.052C5.50929 13.7045 5.65117 13.281 5.65126 12.8457V12.8457Z" stroke="white" stroke-width="1.33568" stroke-linecap="round" stroke-linejoin="round"/>
</svg>
