<svg width="26" height="26" viewBox="0 0 26 26" fill="none" xmlns="http://www.w3.org/2000/svg">
<path fill-rule="evenodd" clip-rule="evenodd" d="M17.4976 9.97927C17.8349 12.0304 17.2191 14.206 15.6556 15.7823C14.1871 17.2626 12.1942 17.9002 10.2718 17.6907C8.82215 17.5327 7.41258 16.8929 6.29819 15.7695C3.70598 13.1563 3.7098 8.93296 6.28552 6.33639C8.86124 3.73983 13.0507 3.73598 15.6429 6.34917C16.6615 7.37604 17.2793 8.65155 17.4976 9.97927ZM10.9739 22.1187C8.17254 22.115 5.37061 21.0364 3.22909 18.8827C3.2259 18.8795 3.22271 18.8763 3.21953 18.8731C-1.06917 14.5497 -1.07295 7.54728 3.20686 3.23282C7.48668 -1.08164 14.4328 -1.07783 18.7215 3.24559C22.1564 6.70829 22.8433 11.8908 20.7799 16.0341C20.712 16.1705 20.6411 16.3057 20.5672 16.4397C20.6007 16.4576 20.6339 16.4762 20.6668 16.4955C20.8661 16.6128 21.0539 16.7575 21.2248 16.9297L25.113 20.8494C26.1832 21.9282 26.1832 23.6774 25.113 24.7563C24.0428 25.8351 22.3077 25.8351 21.2375 24.7563L17.3493 20.8366C17.2252 20.7115 17.1155 20.5774 17.0202 20.4364C16.9986 20.4044 16.9776 20.3719 16.9574 20.3392C16.8287 20.4237 16.6985 20.5052 16.5671 20.5837C14.8487 21.6096 12.9114 22.1212 10.9739 22.1187Z" fill="white"/>
</svg>
