<svg width="26" height="25" viewBox="0 0 26 25" fill="none" xmlns="http://www.w3.org/2000/svg">
<mask id="path-1-inside-1_291_1293" fill="white">
<path fill-rule="evenodd" clip-rule="evenodd" d="M15.3405 6.38767C17.824 8.87119 17.8203 12.8849 15.3526 15.3526C12.8849 17.8203 8.87118 17.824 6.38767 15.3405C3.90416 12.857 3.90781 8.84323 6.37552 6.37552C8.84322 3.90782 12.857 3.90416 15.3405 6.38767ZM20.0583 15.9775C22.2794 11.9803 21.6892 6.8373 18.29 3.43812C14.1821 -0.669836 7.52721 -0.675277 3.42596 3.42597C-0.675284 7.52721 -0.669843 14.1821 3.43811 18.29C7.01659 21.8685 12.5277 22.3339 16.6 19.6834C16.7044 19.8514 16.8295 20.0103 16.9754 20.1562L20.7006 23.8813C21.7259 24.9066 23.3882 24.9066 24.4136 23.8813C25.4389 22.856 25.4389 21.1937 24.4135 20.1683L20.6884 16.4432C20.4977 16.2525 20.2849 16.0972 20.0583 15.9775Z"/>
</mask>
<path d="M20.0583 15.9775L16.4121 13.9514L14.3431 17.6749L18.1092 19.6654L20.0583 15.9775ZM16.6 19.6834L20.1434 17.4824L17.8953 13.8633L14.3245 16.1874L16.6 19.6834ZM16.9754 20.1562L14.0259 23.1057L16.9754 20.1562ZM20.7006 23.8813L23.6501 20.9318L20.7006 23.8813ZM18.3022 18.3022C22.4025 14.2019 22.3989 7.54698 18.29 3.43812L12.3909 9.33723C13.2491 10.1954 13.2382 11.568 12.4031 12.4031L18.3022 18.3022ZM3.43811 18.29C7.54698 22.3989 14.2018 22.4025 18.3022 18.3022L12.4031 12.4031C11.568 13.2382 10.1954 13.2491 9.33722 12.3909L3.43811 18.29ZM3.42596 3.42597C-0.674379 7.52631 -0.670749 14.1812 3.43811 18.29L9.33722 12.3909C8.47906 11.5328 8.49 10.1601 9.32507 9.32508L3.42596 3.42597ZM18.29 3.43812C14.1812 -0.670742 7.5263 -0.674372 3.42596 3.42597L9.32507 9.32508C10.1601 8.49 11.5328 8.47907 12.3909 9.33723L18.29 3.43812ZM23.7045 18.0036C26.8082 12.4181 25.9877 5.23667 21.2396 0.488567L15.3405 6.38767C17.3907 8.43792 17.7507 11.5425 16.4121 13.9514L23.7045 18.0036ZM21.2396 0.488567C15.5072 -5.24383 6.21119 -5.25837 0.476407 0.476414L6.37552 6.37552C8.84322 3.90782 12.857 3.90416 15.3405 6.38767L21.2396 0.488567ZM0.476407 0.476414C-5.25838 6.2112 -5.24384 15.5072 0.48856 21.2396L6.38767 15.3405C3.90416 12.857 3.90781 8.84323 6.37552 6.37552L0.476407 0.476414ZM0.48856 21.2396C5.48603 26.2371 13.1812 26.8856 18.8754 23.1794L14.3245 16.1874C11.8743 17.7822 8.54715 17.5 6.38767 15.3405L0.48856 21.2396ZM19.925 17.2066C20.0067 17.2883 20.0804 17.381 20.1434 17.4824L13.0566 21.8843C13.3284 22.3219 13.6524 22.7322 14.0259 23.1057L19.925 17.2066ZM23.6501 20.9318L19.925 17.2066L14.0259 23.1057L17.751 26.8309L23.6501 20.9318ZM21.464 20.9318C22.0677 20.3281 23.0464 20.3281 23.6501 20.9318L17.751 26.8309C20.4053 29.4852 24.7088 29.4852 27.3631 26.8309L21.464 20.9318ZM21.464 23.1179C20.8603 22.5142 20.8603 21.5355 21.464 20.9318L27.3631 26.8309C30.0174 24.1766 30.0174 19.8731 27.3631 17.2188L21.464 23.1179ZM17.7389 19.3928L21.464 23.1179L27.3631 17.2188L23.638 13.4937L17.7389 19.3928ZM18.1092 19.6654C17.9715 19.5926 17.8462 19.5001 17.7389 19.3928L23.638 13.4937C23.1492 13.0049 22.5984 12.6019 22.0075 12.2896L18.1092 19.6654Z" fill="white" mask="url(#path-1-inside-1_291_1293)"/>
</svg>
