<svg width="98" height="98" viewBox="0 0 98 98" fill="none" xmlns="http://www.w3.org/2000/svg">
<path d="M89.742 21.7771C94.2903 28.584 97.0471 36.4011 97.7936 44.5063C98.0215 46.9811 95.9853 49 93.5 49V49C91.0147 49 89.0262 46.979 88.7472 44.5094C88.0329 38.1871 85.8176 32.1034 82.2588 26.7772C77.8635 20.1992 71.6164 15.0723 64.3074 12.0448C56.9983 9.01734 48.9557 8.2252 41.1964 9.76861C33.4372 11.312 26.3099 15.1217 20.7157 20.7158C15.1216 26.3099 11.312 33.4372 9.76861 41.1964C8.2252 48.9557 9.01733 56.9983 12.0448 64.3074C15.0723 71.6164 20.1992 77.8635 26.7772 82.2588C32.1034 85.8176 38.1871 88.0329 44.5094 88.7472C46.979 89.0262 49 91.0147 49 93.5V93.5C49 95.9853 46.9811 98.0215 44.5063 97.7936C36.4011 97.0471 28.584 94.2903 21.7771 89.742C13.7191 84.3578 7.43862 76.7051 3.72993 67.7515C0.0212309 58.7979 -0.949133 48.9457 0.941543 39.4406C2.83222 29.9355 7.49902 21.2046 14.3518 14.3518C21.2046 7.49902 29.9355 2.83222 39.4406 0.941543C48.9457 -0.949133 58.7979 0.0212309 67.7515 3.72992C76.7051 7.43862 84.3578 13.7191 89.742 21.7771Z" fill="#DBFF4A"/>
</svg>
